<svg width="1440" height="1024" viewBox="0 0 1440 1024" fill="none" xmlns="http://www.w3.org/2000/svg">
<g style="mix-blend-mode:overlay">
<path d="M-149 97L396 387V652L-149 362V97Z" fill="url(#paint0_linear_164_3420)" fill-opacity="0.9"/>
</g>
<g style="mix-blend-mode:overlay">
<path d="M332 -238L877 52V317L332 27V-238Z" fill="url(#paint1_linear_164_3420)" fill-opacity="0.9"/>
</g>
<g style="mix-blend-mode:overlay">
<path d="M1264 234L1809 524V789L1264 499V234Z" fill="url(#paint2_linear_164_3420)" fill-opacity="0.9"/>
</g>
<g style="mix-blend-mode:overlay">
<path d="M350 97L526 190.532V276L350 182.468V97Z" fill="url(#paint3_linear_164_3420)" fill-opacity="0.9"/>
</g>
<g style="mix-blend-mode:overlay">
<path d="M1033 692L1491 935.495V1158L1033 914.505V692Z" fill="url(#paint4_linear_164_3420)" fill-opacity="0.9"/>
</g>
<g style="mix-blend-mode:overlay">
<path d="M783 692L1088 853.982V1002L783 840.018V692Z" fill="url(#paint5_linear_164_3420)" fill-opacity="0.9"/>
</g>
<g style="mix-blend-mode:overlay">
<path d="M165 477L586 701.162V906L165 681.838V477Z" fill="url(#paint6_linear_164_3420)" fill-opacity="0.9"/>
</g>
<defs>
<linearGradient id="paint0_linear_164_3420" x1="226" y1="-139" x2="-118.5" y2="539" gradientUnits="userSpaceOnUse">
<stop offset="0.527112" stop-color="#8DFFBA" stop-opacity="0"/>
<stop offset="0.608948" stop-color="#8DFFBA" stop-opacity="0.2648"/>
<stop offset="0.823181" stop-color="#8DFFBA"/>
</linearGradient>
<linearGradient id="paint1_linear_164_3420" x1="707" y1="-474" x2="362.5" y2="204" gradientUnits="userSpaceOnUse">
<stop offset="0.527112" stop-color="#8DFFBA" stop-opacity="0"/>
<stop offset="0.608948" stop-color="#8DFFBA" stop-opacity="0.2648"/>
<stop offset="0.823181" stop-color="#8DFFBA"/>
</linearGradient>
<linearGradient id="paint2_linear_164_3420" x1="1639" y1="-2" x2="1294.5" y2="676" gradientUnits="userSpaceOnUse">
<stop offset="0.527112" stop-color="#8DFFBA" stop-opacity="0"/>
<stop offset="0.608948" stop-color="#8DFFBA" stop-opacity="0.2648"/>
<stop offset="0.823181" stop-color="#8DFFBA"/>
</linearGradient>
<linearGradient id="paint3_linear_164_3420" x1="471.101" y1="20.8847" x2="360.076" y2="239.67" gradientUnits="userSpaceOnUse">
<stop offset="0.527112" stop-color="#8DFFBA" stop-opacity="0"/>
<stop offset="0.608948" stop-color="#8DFFBA" stop-opacity="0.2648"/>
<stop offset="0.823181" stop-color="#8DFFBA"/>
</linearGradient>
<linearGradient id="paint4_linear_164_3420" x1="1348.14" y1="493.845" x2="1059.03" y2="1063.32" gradientUnits="userSpaceOnUse">
<stop offset="0.527112" stop-color="#8DFFBA" stop-opacity="0"/>
<stop offset="0.608948" stop-color="#8DFFBA" stop-opacity="0.2648"/>
<stop offset="0.823181" stop-color="#8DFFBA"/>
</linearGradient>
<linearGradient id="paint5_linear_164_3420" x1="992.862" y1="560.18" x2="800.657" y2="939.181" gradientUnits="userSpaceOnUse">
<stop offset="0.527112" stop-color="#8DFFBA" stop-opacity="0"/>
<stop offset="0.608948" stop-color="#8DFFBA" stop-opacity="0.2648"/>
<stop offset="0.823181" stop-color="#8DFFBA"/>
</linearGradient>
<linearGradient id="paint6_linear_164_3420" x1="454.679" y1="294.578" x2="188.289" y2="818.516" gradientUnits="userSpaceOnUse">
<stop offset="0.527112" stop-color="#8DFFBA" stop-opacity="0"/>
<stop offset="0.608948" stop-color="#8DFFBA" stop-opacity="0.2648"/>
<stop offset="0.823181" stop-color="#8DFFBA"/>
</linearGradient>
</defs>
</svg>
